<svg width="1062" height="182" viewBox="0 0 1062 182" fill="none" xmlns="http://www.w3.org/2000/svg">
<path d="M64.35 5.94C56.65 5.94 49.39 7.81 42.57 11.55C35.75 15.07 29.48 19.36 23.76 24.42C18.26 29.48 13.42 34.87 9.24 40.59C5.28 46.09 2.2 50.82 0 54.78V0.330009H173.58V54.78C171.38 50.82 168.19 46.09 164.01 40.59C159.83 34.87 154.99 29.48 149.49 24.42C143.99 19.36 137.83 15.07 131.01 11.55C124.19 7.81 116.93 5.94 109.23 5.94V161.7C109.23 165.44 109.89 169.18 111.21 172.92C112.53 176.66 114.73 179.41 117.81 181.17H55.77C58.85 179.41 61.05 176.66 62.37 172.92C63.69 169.18 64.35 165.44 64.35 161.7V5.94ZM250.581 70.62C243.981 71.06 238.701 73.7 234.741 78.54V161.7C234.741 165.44 235.401 169.18 236.721 172.92C238.041 176.66 240.241 179.41 243.321 181.17H181.281C184.361 179.41 186.561 176.66 187.881 172.92C189.201 169.18 189.861 165.44 189.861 161.7V33.33C189.861 29.81 189.201 26.18 187.881 22.44C186.561 18.48 184.361 15.62 181.281 13.86L234.741 0.330009V70.95C241.781 65.67 251.461 63.03 263.781 63.03C272.141 63.03 279.621 64.13 286.221 66.33C292.821 68.53 298.431 71.61 303.051 75.57C307.891 79.53 311.521 84.26 313.941 89.76C316.581 95.04 317.901 100.87 317.901 107.25V161.7C317.901 165.44 318.561 169.18 319.881 172.92C321.201 176.66 323.401 179.41 326.481 181.17H264.771C267.851 179.41 270.051 176.66 271.371 172.92C272.691 169.18 273.351 165.44 273.351 161.7V107.25C273.351 94.05 271.151 84.59 266.751 78.87C262.571 73.15 257.181 70.4 250.581 70.62ZM453.464 96.36C453.464 101.2 451.814 106.15 448.514 111.21C445.214 116.05 440.264 120.56 433.664 124.74C427.064 128.7 418.924 132 409.244 134.64C399.564 137.06 388.234 138.49 375.254 138.93C378.114 147.73 382.514 155.1 388.454 161.04C394.614 166.98 402.864 170.06 413.204 170.28C418.924 170.28 425.304 169.29 432.344 167.31C439.604 165.11 446.534 161.7 453.134 157.08C451.594 159.72 449.394 162.47 446.534 165.33C443.674 167.97 440.044 170.5 435.644 172.92C431.464 175.34 426.514 177.32 420.794 178.86C415.074 180.4 408.474 181.17 400.994 181.17C392.414 181.17 383.834 180.07 375.254 177.87C366.674 175.45 358.864 171.93 351.824 167.31C345.004 162.47 339.394 156.31 334.994 148.83C330.814 141.35 328.724 132.44 328.724 122.1C328.724 112.2 330.374 103.62 333.674 96.36C337.194 88.88 341.924 82.72 347.864 77.88C354.024 72.82 361.284 69.08 369.644 66.66C378.004 64.24 387.134 63.03 397.034 63.03C416.174 63.03 430.474 66.44 439.934 73.26C449.394 79.86 453.904 87.56 453.464 96.36ZM373.934 133.65C381.634 132.99 388.124 131.01 393.404 127.71C398.904 124.19 403.194 120.01 406.274 115.17C409.354 110.33 411.334 105.27 412.214 99.99C413.314 94.49 413.424 89.43 412.544 84.81C411.664 80.19 409.904 76.34 407.264 73.26C404.624 70.18 401.214 68.64 397.034 68.64C393.294 68.64 389.884 69.96 386.804 72.6C383.724 75.02 381.084 78.32 378.884 82.5C376.684 86.46 374.924 91.19 373.604 96.69C372.504 101.97 371.954 107.58 371.954 113.52C371.514 120.34 372.174 127.05 373.934 133.65ZM565.94 122.1C562.2 130.24 560.22 137.72 560 144.54C559.78 151.36 560.66 157.41 562.64 162.69C564.62 167.75 567.26 171.93 570.56 175.23C574.08 178.31 577.6 180.18 581.12 180.84H524.03C527.55 178.86 531.51 175.12 535.91 169.62C540.31 163.9 544.49 156.53 548.45 147.51L615.11 0.330009H620.39V-6.91414e-06H628.64L695.3 147.51C698.38 154.55 702.12 161.26 706.52 167.64C710.92 173.8 715.32 178.2 719.72 180.84H638.54C640.52 180.62 642.39 179.74 644.15 178.2C646.13 176.66 647.56 174.46 648.44 171.6C649.54 168.74 649.98 165.33 649.76 161.37C649.54 157.19 648.33 152.57 646.13 147.51L634.58 122.1H565.94ZM600.26 46.53L568.25 116.82H631.94L600.26 46.53ZM726.902 181.17C729.982 179.41 732.182 176.66 733.502 172.92C734.822 169.18 735.482 165.44 735.482 161.7V19.8C735.482 16.28 734.822 12.65 733.502 8.91C732.182 4.94999 729.982 2.09 726.902 0.330009H791.582C802.582 0.330009 813.252 1.21 823.592 2.96999C834.152 4.51 843.392 7.37 851.312 11.55C859.452 15.51 866.052 20.79 871.112 27.39C876.172 33.99 878.812 42.24 879.032 52.14C879.472 65.12 876.062 75.35 868.802 82.83C861.542 90.09 851.972 95.37 840.092 98.67L873.422 161.7C878.262 170.94 884.532 177.43 892.232 181.17H820.952C824.032 179.41 825.462 176.66 825.242 172.92C825.242 168.96 824.362 165.22 822.602 161.7L791.912 103.62H780.362V161.7C780.362 165.44 781.022 169.18 782.342 172.92C783.662 176.66 785.862 179.41 788.942 181.17H726.902ZM780.362 5.94V98.34H796.862C803.902 98.34 809.732 97.02 814.352 94.38C819.192 91.52 823.042 88 825.902 83.82C828.762 79.42 830.852 74.47 832.172 68.97C833.492 63.25 834.152 57.64 834.152 52.14C834.152 46.42 833.272 40.81 831.512 35.31C829.972 29.81 827.442 24.97 823.922 20.79C820.622 16.39 816.222 12.87 810.722 10.23C805.442 7.37 799.062 5.94 791.582 5.94H780.362ZM952.553 5.94C944.853 5.94 937.593 7.81 930.773 11.55C923.953 15.07 917.683 19.36 911.963 24.42C906.463 29.48 901.623 34.87 897.443 40.59C893.483 46.09 890.403 50.82 888.203 54.78V0.330009H1061.78V54.78C1059.58 50.82 1056.39 46.09 1052.21 40.59C1048.03 34.87 1043.19 29.48 1037.69 24.42C1032.19 19.36 1026.03 15.07 1019.21 11.55C1012.39 7.81 1005.13 5.94 997.433 5.94V161.7C997.433 165.44 998.093 169.18 999.413 172.92C1000.73 176.66 1002.93 179.41 1006.01 181.17H943.973C947.053 179.41 949.253 176.66 950.573 172.92C951.893 169.18 952.553 165.44 952.553 161.7V5.94Z" fill="#505050"/>
</svg>
